<?xml version="1.0" encoding="UTF-8"?>
<svg version="1.1" xmlns="http://www.w3.org/2000/svg" width="126" height="121">
<path d="M0 0 C1.33990038 -0.0103295 2.67979527 -0.02139439 4.01968384 -0.03315735 C6.82218997 -0.0525393 9.62419759 -0.05602888 12.42675781 -0.04956055 C16.00059961 -0.04356843 19.57184011 -0.08778458 23.14514732 -0.14544964 C25.91125589 -0.18260554 28.67674646 -0.18734037 31.44307327 -0.18317604 C33.39509955 -0.18740807 35.34697886 -0.2228378 37.29867554 -0.25895691 C44.49990908 -0.18473201 48.72339273 0.55385164 53.89656067 5.73504639 C59.40553933 12.93522458 58.7258649 21.54404084 58.5390625 30.19921875 C58.51875977 31.99842773 58.51875977 31.99842773 58.49804688 33.83398438 C58.4629705 36.76870754 58.41381677 39.70246757 58.3515625 42.63671875 C59.12757812 42.6210083 59.90359375 42.60529785 60.703125 42.58911133 C64.25252869 42.52637202 67.80181526 42.48760428 71.3515625 42.44921875 C72.57230469 42.42408203 73.79304688 42.39894531 75.05078125 42.37304688 C83.26248387 42.3064655 89.54303645 42.58989791 96.1640625 47.88671875 C100.65308574 53.53006225 101.82705471 58.85882095 102.0390625 65.94921875 C102.07104736 66.75101562 102.10303223 67.5528125 102.13598633 68.37890625 C102.2322517 71.13142129 102.29659033 73.88307093 102.3515625 76.63671875 C102.37347656 77.70712402 102.39539063 78.7775293 102.41796875 79.88037109 C102.47700777 83.29922248 102.51292403 86.71746533 102.5390625 90.13671875 C102.55219482 91.20962158 102.56532715 92.28252441 102.57885742 93.38793945 C102.58870465 103.17684333 102.06632763 112.42174387 96.3515625 120.63671875 C93.49802172 122.06348914 91.04404586 121.79566425 87.85400391 121.82958984 C86.85370903 121.84185608 86.85370903 121.84185608 85.83320618 121.85437012 C83.62318827 121.8792123 81.41323448 121.89573583 79.203125 121.91015625 C78.44870495 121.91547993 77.6942849 121.9208036 76.91700363 121.9262886 C72.92482265 121.9530135 68.93267289 121.97239153 64.94042969 121.98681641 C60.81522417 122.00347446 56.69081601 122.04826248 52.56591225 122.09918785 C49.39518302 122.13282533 46.22464402 122.14438979 43.0537529 122.15004349 C41.53306347 122.15676443 40.01238693 122.17200862 38.49187088 122.1959343 C36.36322025 122.2275213 34.23673315 122.22763441 32.10791016 122.22021484 C30.89704742 122.2283017 29.68618469 122.23638855 28.43862915 122.24472046 C25.3515625 121.63671875 25.3515625 121.63671875 22.99320984 119.22621155 C18.19891824 111.6638178 17.84911807 103.84585256 17.6640625 95.07421875 C17.62990234 93.97013672 17.59574219 92.86605469 17.56054688 91.72851562 C17.47881464 89.03135172 17.40942424 86.33448232 17.3515625 83.63671875 C15.37736328 83.56324219 15.37736328 83.56324219 13.36328125 83.48828125 C-14.25227989 82.36106187 -14.25227989 82.36106187 -21.77624512 74.37950134 C-23.98878169 71.13811074 -24.15427945 69.45339988 -24.16601562 65.56469727 C-24.17862427 64.3631752 -24.19123291 63.16165314 -24.20422363 61.92372131 C-24.19612671 60.63404953 -24.18802979 59.34437775 -24.1796875 58.015625 C-24.1823848 56.66950704 -24.1862692 55.32339098 -24.19128418 53.97727966 C-24.19717025 51.16036369 -24.18864746 48.34395628 -24.16992188 45.52709961 C-24.14715359 41.92788132 -24.16024572 38.32985764 -24.18421173 34.73068333 C-24.19871337 31.95182914 -24.19404366 29.17325495 -24.18370056 26.39439201 C-24.17975796 24.42580764 -24.19184509 22.45721212 -24.20422363 20.48866272 C-24.08571632 9.16605537 -24.08571632 9.16605537 -19.6484375 4.63671875 C-14.07082407 -0.79716518 -7.32573307 0.00753207 0 0 Z " fill="#F24647" transform="translate(23.6484375,-0.63671875)"/>
<path d="M0 0 C1.33990038 -0.0103295 2.67979527 -0.02139439 4.01968384 -0.03315735 C6.82218997 -0.0525393 9.62419759 -0.05602888 12.42675781 -0.04956055 C16.00059961 -0.04356843 19.57184011 -0.08778458 23.14514732 -0.14544964 C25.91125589 -0.18260554 28.67674646 -0.18734037 31.44307327 -0.18317604 C33.39509955 -0.18740807 35.34697886 -0.2228378 37.29867554 -0.25895691 C44.49982428 -0.18473289 48.72347627 0.5539619 53.89694214 5.73466492 C59.37860638 12.90245987 58.75481537 21.51624459 58.6015625 30.13671875 C58.59640625 31.3278125 58.59125 32.51890625 58.5859375 33.74609375 C58.50615639 42.48212486 58.50615639 42.48212486 57.3515625 43.63671875 C55.59190071 43.73388146 53.82872755 43.76874916 52.06640625 43.77734375 C50.97779297 43.79667969 49.88917969 43.81601562 48.76757812 43.8359375 C46.47608312 43.86938998 44.18431578 43.8879893 41.89257812 43.890625 C34.85016129 44.04776642 29.60642669 44.67249077 24.3515625 49.63671875 C19.39447895 55.70677806 19.69673502 61.96474353 19.6015625 69.57421875 C19.55708984 71.31541992 19.55708984 71.31541992 19.51171875 73.09179688 C19.44138849 75.94017255 19.38850836 78.78774712 19.3515625 81.63671875 C15.22573853 81.73641338 11.10039153 81.80857108 6.97363281 81.85644531 C5.57311777 81.87642505 4.17268468 81.90361895 2.77246094 81.93847656 C-7.03735886 82.17637519 -13.74251313 81.84500138 -21.31811523 75.34667969 C-25.27763018 70.41016343 -24.33930727 63.92125219 -24.27734375 57.91796875 C-24.27817347 56.57328093 -24.28063672 55.22859322 -24.28465271 53.88391113 C-24.28750335 51.07284831 -24.27288388 48.2625855 -24.24536133 45.45166016 C-24.21127783 41.86027684 -24.21730264 38.27032293 -24.2360239 34.67887115 C-24.2466259 31.90427881 -24.2376275 29.13001531 -24.22263908 26.35545349 C-24.21498349 24.39132 -24.22228956 22.42714647 -24.22987366 20.4630127 C-24.12155001 12.24488164 -23.24923652 8.1447288 -17.25146484 2.30151367 C-11.62771331 -0.29696591 -6.12448089 0.00629698 0 0 Z " fill="#02DCB2" transform="translate(23.6484375,-0.63671875)"/>
<path d="M0 0 C1.73443359 0.03383789 1.73443359 0.03383789 3.50390625 0.06835938 C6.33730434 0.12690066 9.16795364 0.20884965 12 0.3125 C12.11755481 3.95805558 12.18769812 7.60311474 12.25 11.25 C12.30027344 12.78237305 12.30027344 12.78237305 12.3515625 14.34570312 C12.4531869 22.29781226 11.3280999 28.89681852 5.625 34.75 C-1.07268034 38.73671449 -7.29553555 38.55884611 -14.875 38.4375 C-15.94492187 38.42847656 -17.01484375 38.41945312 -18.1171875 38.41015625 C-20.74502439 38.38669342 -23.37239406 38.35386459 -26 38.3125 C-26.14638209 34.31289101 -26.23443323 30.31397942 -26.3125 26.3125 C-26.35439453 25.18714844 -26.39628906 24.06179687 -26.43945312 22.90234375 C-26.54394783 15.75490602 -26.07092768 10.61495546 -21 5.3125 C-14.80726618 -0.6098327 -8.17738189 -0.30442716 0 0 Z " fill="#333333" transform="translate(69,42.6875)"/>
<path d="M0 0 C4.50036622 -0.08122319 8.99925368 -0.14061723 13.5 -0.1875 C15.40265625 -0.22520508 15.40265625 -0.22520508 17.34375 -0.26367188 C25.68863078 -0.32886626 32.0838528 -0.13291776 38.8125 5.25 C43.30152324 10.8933435 44.47549221 16.2221022 44.6875 23.3125 C44.71948486 24.11429688 44.75146973 24.91609375 44.78442383 25.7421875 C44.8806892 28.49470254 44.94502783 31.24635218 45 34 C45.02191406 35.07040527 45.04382813 36.14081055 45.06640625 37.24365234 C45.12544527 40.66250373 45.16136153 44.08074658 45.1875 47.5 C45.20063232 48.57290283 45.21376465 49.64580566 45.22729492 50.7512207 C45.23705164 60.45015166 44.80038488 69.91461502 39 78 C38.01 78.33 37.02 78.66 36 79 C36 77.35 36 75.7 36 74 C37.98 73.505 37.98 73.505 40 73 C41.10657279 66.76385247 41.14484473 60.65896561 41.1328125 54.3359375 C41.13376923 53.22570221 41.13472595 52.11546692 41.13571167 50.97158813 C41.13638996 48.63340193 41.13456023 46.2952138 41.13037109 43.95703125 C41.12500775 40.3801654 41.13033325 36.80342452 41.13671875 33.2265625 C41.13605811 30.95052056 41.13477723 28.67447869 41.1328125 26.3984375 C41.13483673 25.33064056 41.13686096 24.26284363 41.13894653 23.16268921 C41.13579437 22.16460236 41.13264221 21.1665155 41.12939453 20.13818359 C41.12859894 19.26439056 41.12780334 18.39059753 41.12698364 17.49032593 C40.99406353 14.88357749 40.67955722 12.52115696 40 10 C38.16715557 8.87483915 38.16715557 8.87483915 36 8 C35.360625 7.319375 34.72125 6.63875 34.0625 5.9375 C30.43271158 2.52769876 25.83982921 2.85578874 21.04296875 2.68359375 C19.93115234 2.64169922 18.81933594 2.59980469 17.67382812 2.55664062 C16.52333984 2.51732422 15.37285156 2.47800781 14.1875 2.4375 C13.01767578 2.39431641 11.84785156 2.35113281 10.64257812 2.30664062 C7.76184907 2.20081792 4.88093951 2.09992927 2 2 C2 8.6 2 15.2 2 22 C1.67 22 1.34 22 1 22 C0.67 14.74 0.34 7.48 0 0 Z " fill="#E17576" transform="translate(81,42)"/>
<path d="M0 0 C15.84 0 31.68 0 48 0 C47.34 0.99 46.68 1.98 46 3 C43.75341797 3.2487793 43.75341797 3.2487793 40.9921875 3.07421875 C40.00605469 3.01943359 39.01992188 2.96464844 38.00390625 2.90820312 C36.97136719 2.83537109 35.93882813 2.76253906 34.875 2.6875 C33.83472656 2.62626953 32.79445312 2.56503906 31.72265625 2.50195312 C29.14727 2.34837505 26.57361768 2.18048829 24 2 C24.09374801 6.19960604 24.19988805 10.39866312 24.31738281 14.59765625 C24.35560024 16.02530398 24.39046572 17.45304563 24.421875 18.88085938 C24.46768401 20.93653868 24.5256498 22.99157554 24.5859375 25.046875 C24.63306885 26.90070801 24.63306885 26.90070801 24.68115234 28.79199219 C24.97682001 31.76678017 25.44027331 33.49349184 27 36 C27.99 36 28.98 36 30 36 C30 37.32 30 38.64 30 40 C26.14149162 38.75976516 24.77359043 36.39142526 22.83203125 32.94921875 C21.08856158 28.86475225 20.84810727 24.65657992 20.68359375 20.26171875 C20.64169922 19.19501953 20.59980469 18.12832031 20.55664062 17.02929688 C20.51732422 15.92650391 20.47800781 14.82371094 20.4375 13.6875 C20.39431641 12.56537109 20.35113281 11.44324219 20.30664062 10.28710938 C20.20085289 7.52487415 20.09995017 4.76245261 20 2 C13.4 1.67 6.8 1.34 0 1 C0 0.67 0 0.34 0 0 Z " fill="#D47C7B" transform="translate(21,81)"/>
<path d="M0 0 C0.33 0 0.66 0 1 0 C1 8.25 1 16.5 1 25 C-2.67125 25.020625 -6.3425 25.04125 -10.125 25.0625 C-11.2711377 25.071604 -12.41727539 25.08070801 -13.59814453 25.09008789 C-18.50844094 25.10343343 -23.17670115 25.05979058 -28 24 C-28 23.67 -28 23.34 -28 23 C-19.09 23 -10.18 23 -1 23 C-1.0395866 15.80477218 -1.0395866 15.80477218 -1.09008789 8.60961914 C-1.09258545 7.71879639 -1.09508301 6.82797363 -1.09765625 5.91015625 C-1.10551147 4.53549194 -1.10551147 4.53549194 -1.11352539 3.13305664 C-1 1 -1 1 0 0 Z " fill="#1FC3A4" transform="translate(42,56)"/>
<path d="M0 0 C0.99 0.33 1.98 0.66 3 1 C3 1.99 3 2.98 3 4 C3.66 4 4.32 4 5 4 C5 4.99 5 5.98 5 7 C7.64 7.33 10.28 7.66 13 8 C12.67 8.99 12.34 9.98 12 11 C14.64 11.33 17.28 11.66 20 12 C20 12.33 20 12.66 20 13 C14.0444928 13.49629227 9.96053639 12.39350502 5 9 C2.93924348 7.09355134 1.60304374 5.35447049 0 3 C0 2.01 0 1.02 0 0 Z " fill="#54DFC4" transform="translate(0,68)"/>
<path d="M0 0 C1.48168945 1.04418945 1.48168945 1.04418945 3 3 C3.26153286 5.51727719 3.3497922 7.78103966 3.29296875 10.29296875 C3.28872391 10.99899734 3.28447906 11.70502594 3.28010559 12.43244934 C3.26333034 14.68452303 3.22568243 16.93569742 3.1875 19.1875 C3.17245157 20.71548185 3.15876344 22.24347776 3.14648438 23.77148438 C3.11343089 27.51466872 3.06165832 31.25718196 3 35 C2.67 35 2.34 35 2 35 C2 25.1 2 15.2 2 5 C1.34 5 0.68 5 0 5 C0 3.35 0 1.7 0 0 Z " fill="#20D8B5" transform="translate(77,6)"/>
<path d="M0 0 C0.66 0.99 1.32 1.98 2 3 C1.04802691 7.47427353 -0.50369748 10.06761724 -4 13 C-4.33 13 -4.66 13 -5 13 C-5 11.35 -5 9.7 -5 8 C-3.68 7.67 -2.36 7.34 -1 7 C-0.67 4.69 -0.34 2.38 0 0 Z " fill="#E86C70" transform="translate(122,108)"/>
<path d="M0 0 C0.66 0 1.32 0 2 0 C2.99 2.64 3.98 5.28 5 8 C5.99 8 6.98 8 8 8 C8 9.32 8 10.64 8 12 C4.74905801 10.95505436 3.43126714 9.40864509 1.75 6.5625 C0 3 0 3 0 0 Z " fill="#E88383" transform="translate(43,109)"/>
<path d="M0 0 C0.99 0.33 1.98 0.66 3 1 C1.68 3.31 0.36 5.62 -1 8 C-2.0625 6.1875 -2.0625 6.1875 -3 4 C-2.67 3.01 -2.34 2.02 -2 1 C-1.34 0.67 -0.68 0.34 0 0 Z " fill="#12CDA4" transform="translate(45,48)"/>
<path d="M0 0 C5.53846154 0.61538462 5.53846154 0.61538462 7.875 2.5625 C8.431875 3.2740625 8.431875 3.2740625 9 4 C5.38970831 4 2.44193324 3.03907418 -1 2 C-0.67 1.34 -0.34 0.68 0 0 Z " fill="#E87C7C" transform="translate(109,43)"/>
</svg>
